<?xml version="1.0" encoding="UTF-8" standalone="no"?>
<svg
   xmlns="http://www.w3.org/2000/svg"
   xmlns:xlink="http://www.w3.org/1999/xlink"
   viewBox="15 10 70 85"
   version="1.1">
  <defs>
    <style>
path {
  fill:none;
  stroke:darkorange;
}
  </style>
    <g id="face">
      <path d="m 40,36 10,0" />
      <!--<path d="m 22,44 -4,-31 22,23" id="ear" />-->
      <path d="M 50,90 48,90 33,69 17,52 27,45 22,44" />
      <path d="m 22,44 18,-8 m 0,0 10,50" />
      <path d="m 17,52 22,-2 5.3,7.5 -8,0 -6,-6.6 -3.3,-6" />
      <path d="m 17,52 19,13 14,21 -2,4" />
      <path d="m 36,65 8.3,-7.5" />
      <path d="M 27,45 40,36" />
    </g>
    <path d="m 22,44 -4,-31 22,23" id="ear" />
    <g id="fox">
      <use xlink:href="#face" class="left face"/>
      <use xlink:href="#ear" class="left ear"/>
      <use xlink:href="#face" class="right face"
        x="-100" y="0" transform="scale(-1,1)"/>
      <use xlink:href="#ear" class="right ear"
        x="-100" y="0" transform="scale(-1,1)"/>
    </g>
  </defs>
  <use xlink:href="#fox" x="0" y="0"/>
</svg>
